<?xml version="1.0" standalone="no"?><!DOCTYPE svg PUBLIC "-//W3C//DTD SVG 1.1//EN" "http://www.w3.org/Graphics/SVG/1.1/DTD/svg11.dtd"><svg t="1607665933300" class="icon" viewBox="0 0 1024 1024" version="1.1" xmlns="http://www.w3.org/2000/svg" p-id="6958" xmlns:xlink="http://www.w3.org/1999/xlink" width="200" height="200"><defs><style type="text/css"></style></defs><path d="M243.2 906.666667c-6.4 0-12.8-2.133333-17.066667-8.533334-6.4-8.533333-4.266667-23.466667 4.266667-29.866666 172.8-130.133333 166.4-217.6 162.133333-328.533334-2.133333-21.333333-2.133333-44.8-2.133333-68.266666 0-55.466667 44.8-102.4 102.4-102.4 55.466667 0 98.133333 44.8 102.4 100.266666 0 12.8-8.533333 21.333333-21.333333 21.333334s-21.333333-8.533333-21.333334-21.333334c-2.133333-34.133333-27.733333-59.733333-59.733333-59.733333-32 0-59.733333 25.6-59.733333 59.733333 0 23.466667 2.133333 44.8 2.133333 66.133334 6.4 119.466667 12.8 221.866667-179.2 364.8-4.266667 6.4-8.533333 6.4-12.8 6.4zM433.066667 974.933333c-4.266667 0-10.666667-2.133333-14.933334-6.4-8.533333-8.533333-8.533333-21.333333 0-29.866666 19.2-21.333333 36.266667-42.666667 51.2-66.133334 6.4-10.666667 19.2-12.8 29.866667-6.4 10.666667 6.4 12.8 19.2 6.4 29.866667-17.066667 25.6-36.266667 49.066667-57.6 72.533333-4.266667 4.266667-8.533333 6.4-14.933333 6.4z" p-id="6959"></path><path d="M168.533333 851.2c-8.533333 0-14.933333-4.266667-19.2-10.666667-6.4-10.666667-2.133333-23.466667 8.533334-29.866666 164.266667-87.466667 157.866667-183.466667 153.6-285.866667 0-17.066667-2.133333-36.266667-2.133334-53.333333 0-100.266667 81.066667-181.333333 181.333334-181.333334 89.6 0 164.266667 64 179.2 151.466667 2.133333 10.666667-6.4 23.466667-17.066667 25.6-10.666667 2.133333-23.466667-6.4-25.6-17.066667-10.666667-66.133333-70.4-115.2-136.533333-115.2-76.8 0-138.666667 61.866667-138.666667 138.666667 0 17.066667 0 34.133333 2.133333 51.2 6.4 106.666667 10.666667 226.133333-174.933333 326.4h-10.666667zM546.133333 974.933333c-4.266667 0-8.533333-2.133333-12.8-4.266666-8.533333-6.4-10.666667-21.333333-4.266666-29.866667 2.133333-4.266667 4.266667-6.4 6.4-10.666667 6.4-10.666667 19.2-12.8 29.866666-6.4 10.666667 6.4 12.8 19.2 6.4 29.866667-2.133333 4.266667-6.4 8.533333-8.533333 10.666667-4.266667 8.533333-10.666667 10.666667-17.066667 10.666666z" p-id="6960"></path><path d="M110.933333 761.6c-10.666667 0-19.2-6.4-21.333333-17.066667-2.133333-10.666667 4.266667-23.466667 17.066667-25.6 147.2-32 138.666667-110.933333 125.866666-209.066666-2.133333-12.8-2.133333-23.466667-4.266666-36.266667-6.4-64 14.933333-128 61.866666-177.066667 51.2-55.466667 125.866667-87.466667 200.533334-87.466666 132.266667 0 243.2 98.133333 260.266666 230.4 2.133333 10.666667-6.4 21.333333-19.2 23.466666-10.666667 2.133333-21.333333-6.4-23.466666-19.2-12.8-108.8-106.666667-192-217.6-192-64 0-128 27.733333-170.666667 74.666667-36.266667 40.533333-55.466667 91.733333-51.2 142.933333 0 10.666667 2.133333 23.466667 4.266667 34.133334 10.666667 100.266667 23.466667 215.466667-160 256 0 2.133333-2.133333 2.133333-2.133334 2.133333zM328.533333 947.2c-6.4 0-10.666667-2.133333-14.933333-6.4-8.533333-8.533333-8.533333-21.333333 0-29.866667 46.933333-44.8 81.066667-87.466667 104.533333-130.133333 6.4-10.666667 19.2-12.8 29.866667-8.533333 10.666667 6.4 12.8 19.2 8.533333 29.866666-25.6 46.933333-64 91.733333-113.066666 138.666667-4.266667 6.4-8.533333 6.4-14.933334 6.4z" p-id="6961"></path><path d="M145.066667 637.866667c-8.533333 0-19.2-2.133333-27.733334-6.4-14.933333-8.533333-27.733333-21.333333-32-38.4-12.8-40.533333-17.066667-81.066667-17.066666-121.6 0-113.066667 44.8-219.733333 123.733333-298.666667 78.933333-81.066667 185.6-123.733333 298.666667-123.733333 113.066667 0 219.733333 44.8 298.666666 123.733333 78.933333 78.933333 123.733333 185.6 123.733334 298.666667v46.933333c0 12.8-10.666667 21.333333-21.333334 21.333333-12.8 0-21.333333-10.666667-21.333333-21.333333v-46.933333c0-102.4-40.533333-196.266667-110.933333-268.8-70.4-72.533333-166.4-110.933333-268.8-110.933334s-196.266667 40.533333-268.8 110.933334C149.333333 275.2 110.933333 371.2 110.933333 471.466667c0 38.4 6.4 74.666667 17.066667 110.933333 2.133333 4.266667 4.266667 8.533333 10.666667 12.8 4.266667 2.133333 10.666667 2.133333 14.933333 0 8.533333-4.266667 14.933333-12.8 12.8-23.466667-10.666667-32-14.933333-66.133333-14.933333-100.266666 0-91.733333 36.266667-177.066667 100.266666-243.2 64-64 151.466667-100.266667 243.2-100.266667s177.066667 36.266667 243.2 100.266667c61.866667 61.866667 98.133333 145.066667 100.266667 234.666666 0 12.8-8.533333 21.333333-21.333333 21.333334-10.666667 0-21.333333-8.533333-21.333334-21.333334-2.133333-76.8-34.133333-149.333333-87.466666-204.8C646.4 202.666667 571.733333 170.666667 490.666667 170.666667c-81.066667 0-155.733333 32-213.333334 87.466666-57.6 57.6-87.466667 132.266667-87.466666 213.333334 0 29.866667 4.266667 59.733333 12.8 87.466666 8.533333 32-6.4 64-38.4 74.666667-6.4 4.266667-12.8 4.266667-19.2 4.266667z" p-id="6962"></path><path d="M492.8 558.933333c-10.666667 0-21.333333-8.533333-21.333333-21.333333v-21.333333-42.666667c0-12.8 8.533333-21.333333 21.333333-21.333333s21.333333 8.533333 21.333333 21.333333v64c0 10.666667-10.666667 21.333333-21.333333 21.333333zM727.466667 987.733333c-10.666667 0-23.466667 0-34.133334-2.133333-117.333333-14.933333-211.2-110.933333-226.133333-226.133333-8.533333-74.666667 12.8-151.466667 64-206.933334 57.6-64 145.066667-98.133333 230.4-87.466666 117.333333 14.933333 211.2 110.933333 226.133333 226.133333 8.533333 74.666667-12.8 151.466667-64 206.933333-49.066667 55.466667-119.466667 89.6-196.266666 89.6z m0-484.266666c-64 0-123.733333 27.733333-164.266667 74.666666-42.666667 49.066667-61.866667 108.8-53.333333 174.933334 12.8 98.133333 91.733333 177.066667 189.866666 189.866666 72.533333 8.533333 145.066667-19.2 194.133334-72.533333 42.666667-49.066667 61.866667-108.8 53.333333-174.933333-12.8-98.133333-91.733333-177.066667-189.866667-189.866667-10.666667 0-19.2-2.133333-29.866666-2.133333z" p-id="6963"></path><path d="M691.2 842.666667c-6.4 0-10.666667-2.133333-14.933333-6.4l-64-64c-8.533333-8.533333-8.533333-21.333333 0-29.866667 8.533333-8.533333 21.333333-8.533333 29.866666 0l49.066667 49.066667 162.133333-162.133334c8.533333-8.533333 21.333333-8.533333 29.866667 0 8.533333 8.533333 8.533333 21.333333 0 29.866667l-177.066667 177.066667c-4.266667 4.266667-8.533333 6.4-14.933333 6.4z" p-id="6964"></path></svg>